# AST/ASF file generated using VICON BodyLanguage
# -----------------------------------------------
:version 1.10
:name VICON
:units
  mass 1.0
  length 0.45
  angle deg
:documentation
   .ast/.asf automatically generated from VICON data using
   VICON BodyBuilder and BodyLanguage model FoxedUp or BRILLIANT.MOD
:root
   order TX TY TZ RX RY RZ
   axis XYZ
   position 0 0 0  
   orientation 0 0 0 
:bonedata
  begin
     id 1 
     name lhipjoint
     direction 0.702568 -0.596508 0.388042 
     length 2.56661 
     axis 0 0 0  XYZ
  end
  begin
     id 2 
     name lfemur
     direction 0.34202 -0.939693 0  
     length 6.58374  
     axis 0 0 20  XYZ
    dof rx ry rz
    limits (-160.0 20.0)
           (-70.0 70.0)
           (-60.0 70.0)
  end
  begin
     id 3 
     name ltibia
     direction 0.34202 -0.939693 0   
     length 6.62538   
     axis 0 0 20   XYZ
    dof rx
    limits (-10.0 170.0)
  end
  begin
     id 4 
     name lfoot
     direction 0.10455 -0.287249 0.952133   
     length 2.26699   
     axis -90 7.62852e-016 20   XYZ
    dof rx rz
    limits (-45.0 90.0)
           (-70.0 20.0)
  end
  begin
     id 5 
     name ltoes
     direction 1.53572e-011 -4.22322e-011 1   
     length 1.12949   
     axis -90 7.62852e-016 20   XYZ
    dof rx
    limits (-90.0 20.0)
  end
  begin
     id 6 
     name rhipjoint
     direction -0.728055 -0.574632 0.373811   
     length 2.66432  
     axis 0 0 0  XYZ 
  end
  begin
     id 7 
     name rfemur
     direction -0.34202 -0.939693 0   
     length 6.66732   
     axis 0 0 -20   XYZ
    dof rx ry rz
    limits (-160.0 20.0)
           (-70.0 70.0)
           (-70.0 60.0)
  end
  begin
     id 8 
     name rtibia
     direction -0.34202 -0.939693 0   
     length 6.59288   
     axis 0 0 -20   XYZ
    dof rx
    limits (-10.0 170.0)
 end
 begin
     id 9 
     name rfoot
     direction -0.119193 -0.327479 0.93731   
     length 2.38061  
     axis -90 -7.62852e-016 -20   XYZ
    dof rx rz
    limits (-45.0 90.0)
           (-20.0 70.0)
  end
  begin
     id 10 
     name rtoes
     direction -1.53547e-011 -4.21827e-011 1   
     length 1.17899   
     axis -90 -7.62852e-016 -20   XYZ
    dof rx
    limits (-90.0 20.0)
  end
  begin
     id 11 
     name lowerback
     direction -0.000416114 0.999912 -0.0132284   
     length 2.12109   
     axis 0 0 0   XYZ
    dof rx ry rz
    limits (-20.0 45.0)
           (-30.0 30.0)
           (-30.0 30.0)
  end
  begin
     id 12 
     name upperback
     direction -0.00136371 0.99809 0.0617608   
     length 2.10067   
     axis 0 0 0   XYZ
    dof rx ry rz
    limits (-20.0 45.0)
           (-30.0 30.0)
           (-30.0 30.0)
  end
  begin
     id 13 
     name thorax
     direction -3.43026e-005 0.997776 0.0666515   
     length 2.10618   
     axis 0 0 0   XYZ
    dof rx ry rz
    limits (-20.0 45.0)
           (-30.0 30.0)
           (-30.0 30.0)
  end
  begin
     id 14 
     name lowerneck
     direction 0.0398646 0.998418 0.0396592   
     length 1.83817   
     axis 0 0 0   XYZ
    dof rx ry rz
    limits (-20.0 45.0)
           (-30.0 30.0)
           (-30.0 30.0)
  end
  begin
     id 15 
     name upperneck
     direction -0.0367268 0.961527 -0.272244   
     length 1.81975   
     axis 0 0 0   XYZ
    dof rx ry rz
    limits (-20.0 45.0)
           (-30.0 30.0)
           (-30.0 30.0)
  end
  begin
     id 16
     name head
     direction -0.0182665 0.99536 -0.0944669  
     length 1.86026  
     axis 0 0 0   XYZ
    dof rx ry rz
    limits (-20.0 45.0)
           (-30.0 30.0)
           (-30.0 30.0)
  end
  begin
     id 17 
     name lclavicle
     direction 0.924239 0.361045 0.124212  
     length 3.26878  
     axis 0 0 0   XYZ
    dof ry rz
    limits (-20.0 10.0)
           (0.0 20.0)
  end
  begin
     id 18 
     name lhumerus
     direction 1 -4.48968e-011 -2.56583e-027   
     length 4.58538   
     axis 180 -30 -90   XYZ
    dof rx ry rz
    limits (-60.0 90.0)
           (-90.0 90.0)
           (-90.0 90.0)
  end
  begin
     id 19
     name lradius
     direction 1 -4.4898e-011 -5.50375e-027   
     length 2.68935   
     axis 180 -30 -90   XYZ
    dof rx
    limits (-10.0 170.0)
  end
  begin
     id 20
     name lwrist
     direction 1 -4.48939e-011 -1.48955e-026   
     length 1.34468   
     axis 9.0955e-015 90 90   XYZ
    dof ry
    limits (-180.0 0.0)
 end
  begin
     id 21 
     name lhand
     direction 1 -4.48936e-011 -2.97907e-026   
     length 0.585058   
     axis 1.90115e-014 90 90   XYZ
    dof rx rz
    limits (-90.0 90.0)
           (-45.0 45.0)
  end
  begin
     id 22 
     name lfingers
     direction 1 -4.49082e-011 -5.96235e-026   
     length 0.471689   
     axis 3.80223e-014 90 90   XYZ
    dof rx
    limits (0.0 90.0)
  end
  begin
     id 23
     name lthumb
     direction 0.707107 -6.3489e-011 0.707107   
     length 0.677253   
     axis -90 45 -3.84942e-014   XYZ
    dof rx rz
    limits (-45.0 45.0)
           (-45.0 45.0)
  end
  begin
     id 24 
     name rclavicle
     direction -0.923098 0.371783 0.0983239   
     length 3.19656  
     axis 0 0 0   XYZ 
    dof ry rz
    limits (-10.0 20.0)
           (-20.0 0.0)
  end
  begin
     id 25 
     name rhumerus
     direction -1 -4.48976e-011 -2.5492e-027  
     length 4.4745   
     axis 180 30 90   XYZ
    dof rx ry rz
    limits (-90.0 60.0)
           (-90.0 90.0)
           (-90.0 90.0)
  end
  begin
     id 26 
     name rradius
     direction -1 -4.48941e-011 -4.36555e-027   
     length 2.93896   
     axis 180 30 90   XYZ
    dof rx
    limits (-10.0 170.0)
  end
  begin
     id 27 
     name rwrist
     direction -1 -4.49044e-011 -1.49032e-026   
     length 1.46948   
     axis 9.0955e-015 -90 -90   XYZ
    dof ry
    limits (-180.0 0.0)
  end
  begin
     id 28
     name rhand
     direction -1 -4.48826e-011 -2.97749e-026   
     length 0.405092   
     axis 1.90115e-014 -90 -90   XYZ
    dof rx rz
    limits (-90.0 90.0)
           (-45.0 45.0)
  end
  begin
     id 29
     name rfingers
     direction -1 -4.49209e-011 -5.96602e-026   
     length 0.326596   
     axis 3.80223e-014 -90 -90   XYZ
    dof rx
    limits (0.0 90.0)
  end
  begin
     id 30
     name rthumb
     direction -0.707107 -6.34776e-011 0.707107   
     length 0.468928   
     axis -90 -45 3.84942e-014   XYZ
    dof rx rz
    limits (-45.0 45.0)
           (-45.0 45.0)
  end
:hierarchy
  begin
    root lhipjoint rhipjoint lowerback
    lhipjoint lfemur
    lfemur ltibia
    ltibia lfoot
    lfoot ltoes
    rhipjoint rfemur
    rfemur rtibia
    rtibia rfoot
    rfoot rtoes
    lowerback upperback
    upperback thorax
    thorax lowerneck lclavicle rclavicle
    lowerneck upperneck
    upperneck head
    lclavicle lhumerus
    lhumerus lradius
    lradius lwrist
    lwrist lhand lthumb
    lhand lfingers
    rclavicle rhumerus
    rhumerus rradius
    rradius rwrist
    rwrist rhand rthumb
    rhand rfingers
  end

#!OML:ASF H:\Punching\Project 1\Capture day 1\Session 1\female.ASF
:FULLY-SPECIFIED
:DEGREES
244
root -1.0541 15.0989 6.50384 13.3103 -18.289 -0.516685
lowerback -3.0685 -2.94492 0.724901
upperback -6.3502 -4.03054 -1.12205
thorax -4.98139 -2.09957 -1.50581
lowerneck 2.2074 11.6425 20.8687
upperneck 31 18.0487 -10.9318
head 13.0764 9.49026 -5.52209
rclavicle -1.02498e-014 -3.73715e-014
rhumerus 10.9942 38.6137 -81.7645
rradius 127.854
rwrist -38.847
rhand -22.8881 -9.81468
rfingers 7.12502
rthumb 3.55117 -39.7648
lclavicle -1.02498e-014 -3.73715e-014
lhumerus 26.4885 13.8401 60.3155
lradius 89.4578
lwrist 37.9498
lhand -16.4973 33.1525
lfingers 7.12502
lthumb 9.72035 62.9082
rfemur -46.4426 14.1181 10.8796
rtibia 43.2796
rfoot -9.86683 -0.924715
rtoes -7.30164
lfemur 19.8919 19.2297 -7.60821
ltibia 1.59028e-014
lfoot -10.0641 -1.2268
ltoes -27.9544
245
root -1.04992 15.1141 6.49538 13.2917 -16.1136 -0.374836
lowerback -3.02423 -2.88864 0.924721
upperback -6.29112 -3.95021 -1.13939
thorax -4.95668 -2.06688 -1.63547
lowerneck 1.54122 11.1114 20.2293
upperneck 31.2935 17.0826 -10.4256
head 12.9996 9.02029 -5.36058
rclavicle -1.2152e-013 -2.38542e-014
rhumerus 11.0422 37.8984 -81.4674
rradius 128.192
rwrist -39.3052
rhand -22.876 -9.69765
rfingers 7.12502
rthumb 3.56287 -39.6476
lclavicle -1.2152e-013 -2.38542e-014
lhumerus 25.4999 11.866 61.6959
lradius 94.1651
lwrist 37.8394
lhand -15.698 32.9252
lfingers 7.12502
lthumb 10.4915 62.6434
rfemur -45.9494 13.438 10.5918
rtibia 43.41
rfoot -10.0226 -2.34892
rtoes -7.45407
lfemur 18.964 17.2129 -7.74975
ltibia -7.63333e-014
lfoot -9.97711 -0.65273
ltoes -28.0496
246
root -1.04934 15.1297 6.48598 13.2534 -13.7903 -0.20102
lowerback -2.95354 -2.84471 1.04931
upperback -6.23483 -3.88554 -1.13939
thorax -4.94345 -2.03777 -1.70377
lowerneck 0.87076 10.5469 19.5733
upperneck 31.6081 16.0794 -9.92067
head 12.9391 8.53452 -5.1989
rclavicle 1.27843e-014 1.31198e-014
rhumerus 11.1535 37.1362 -81.0771
rradius 128.504
rwrist -39.8221
rhand -22.8679 -9.63232
rfingers 7.12502
rthumb 3.57064 -39.5822
lclavicle 1.27843e-014 1.31198e-014
lhumerus 24.4394 9.79129 63.1012
lradius 98.6584
lwrist 37.0993
lhand -14.6871 32.4616
lfingers 7.12502
lthumb 11.4665 62.128
rfemur -45.3814 12.6692 10.308
rtibia 43.5634
rfoot -10.2092 -3.80449
rtoes -7.54227
lfemur 18.0128 15.0375 -7.86466
ltibia 1.27222e-014
lfoot -9.8677 -0.0661089
ltoes -28.1396
247
root -1.05204 15.1455 6.47609 13.2034 -11.3403 -0.0129304
lowerback -2.85572 -2.80738 1.12271
upperback -6.19192 -3.82885 -1.11754
thorax -4.95464 -2.00973 -1.71918
lowerneck 0.235537 9.94154 18.8905
upperneck 31.9355 15.0363 -9.42056
head 12.883 8.03166 -5.03919
rclavicle 4.55341e-014 -1.11319e-014
rhumerus 11.2849 36.3331 -80.6183
rradius 128.808
rwrist -40.3931
rhand -22.8679 -9.59104
rfingers 7.12502
rthumb 3.57065 -39.5409
lclavicle 4.55341e-014 -1.11319e-014
lhumerus 23.2974 7.61435 64.5306
lradius 102.964
lwrist 36.0597
lhand -13.6068 31.9086
lfingers 7.12502
lthumb 12.5082 61.5143
rfemur -44.7327 11.8184 10.0461
rtibia 43.7235
rfoot -10.4276 -5.26433
rtoes -7.56399
lfemur 17.0463 12.7265 -7.93571
ltibia 2.54444e-014
lfoot -9.74165 0.532617
ltoes -28.2144
248
root -1.0575 15.1616 6.46636 13.1451 -8.77438 0.179407
lowerback -2.73251 -2.7812 1.15662
upperback -6.15653 -3.78599 -1.07007
thorax -4.98407 -1.98609 -1.68447
lowerneck -0.387085 9.3075 18.1792
upperneck 32.2817 13.9667 -8.92103
head 12.8415 7.51667 -4.87547
rclavicle 2.07171e-014 1.74931e-014
rhumerus 11.4411 35.4952 -80.0977
rradius 129.12
rwrist -41.018
rhand -22.8996 -9.57582
rfingers 7.12502
rthumb 3.5401 -39.5262
lclavicle 2.07171e-014 1.74931e-014
lhumerus 22.1007 5.3385 65.9543
lradius 107.085
lwrist 34.9771
lhand -12.5906 31.4098
lfingers 7.12502
lthumb 13.4878 60.953
rfemur -43.9973 10.888 9.8142
rtibia 43.8743
rfoot -10.6828 -6.71032
rtoes -7.50369
lfemur 16.0688 10.2926 -7.95381
ltibia 5.725e-014
lfoot -9.60307 1.14496
ltoes -28.2478
249
root -1.06524 15.1775 6.45708 13.0864 -6.1168 0.367035
lowerback -2.58224 -2.75917 1.16549
upperback -6.1333 -3.74783 -1.00064
thorax -5.03864 -1.96321 -1.61137
lowerneck -0.995665 8.64029 17.4415
upperneck 32.6455 12.8609 -8.41364
head 12.8131 6.98634 -4.706
rclavicle -3.80673e-014 1.07344e-014
rhumerus 11.5878 34.6193 -79.5404
rradius 129.462
rwrist -41.6567
rhand -22.9711 -9.58487
rfingers 7.12502
rthumb 3.47098 -39.5364
lclavicle -3.80673e-014 1.07344e-014
lhumerus 20.878 2.93113 67.3312
lradius 111.007
lwrist 34.025
lhand -11.7771 31.0406
lfingers 7.12502
lthumb 14.2718 60.5302
rfemur -43.1838 9.88389 9.61975
rtibia 44.0024
rfoot -10.969 -8.12291
rtoes -7.38719
lfemur 15.08 7.76227 -7.91372
ltibia 3.81667e-014
lfoot -9.45897 1.77435
ltoes -28.2049
